<?xml version="1.0" standalone="no"?>
<!DOCTYPE svg PUBLIC "-//W3C//DTD SVG 20010904//EN"
 "http://www.w3.org/TR/2001/REC-SVG-20010904/DTD/svg10.dtd">
<svg version="1.0" xmlns="http://www.w3.org/2000/svg"
 width="700.000000pt" height="700.000000pt" viewBox="0 0 700.000000 700.000000"
 preserveAspectRatio="xMidYMid meet">
<metadata>
Created by potrace 1.11, written by Peter Selinger 2001-2013
</metadata>
<g transform="translate(0.000000,700.000000) scale(0.100000,-0.100000)"
fill="#000000" stroke="none">
<path d="M3347 5424 c-1 -1 -53 -5 -115 -9 -62 -3 -123 -8 -135 -10 -12 -2
-53 -6 -92 -10 -38 -4 -72 -8 -75 -10 -3 -1 -25 -6 -50 -9 -602 -82 -1282
-378 -1845 -801 -358 -270 -760 -679 -989 -1008 l-47 -68 69 -97 c190 -267
493 -594 736 -797 27 -22 58 -48 70 -59 11 -10 37 -30 56 -45 19 -14 37 -29
40 -32 30 -36 388 -277 540 -364 196 -112 483 -242 670 -305 52 -18 104 -36
115 -40 102 -43 537 -138 715 -156 25 -2 56 -6 70 -9 94 -17 509 -24 685 -11
156 11 298 27 365 41 14 3 43 8 65 11 34 5 138 27 185 38 242 61 430 119 585
183 33 13 74 30 90 36 83 32 464 232 564 296 325 205 579 408 847 675 179 179
360 387 454 522 8 12 30 43 48 68 l33 47 -47 67 c-53 75 -166 223 -200 262
-290 332 -504 536 -784 746 -69 52 -129 97 -135 102 -34 26 -285 183 -288 181
-3 -2 -13 3 -23 12 -45 38 -297 167 -474 242 -247 105 -588 208 -795 241 -20
4 -40 8 -44 10 -3 2 -35 7 -71 11 -36 4 -68 9 -71 10 -3 2 -32 6 -65 10 -33 3
-69 7 -81 9 -57 11 -566 29 -576 20z m351 -545 c209 -45 261 -61 372 -110 422
-188 728 -587 805 -1050 14 -85 15 -352 1 -434 -81 -493 -420 -910 -880 -1083
-186 -70 -286 -87 -506 -87 -155 0 -193 4 -305 31 -116 27 -304 97 -345 128
-8 7 -31 20 -52 31 -49 25 -176 120 -235 176 -224 212 -367 477 -423 780 -27
146 -23 381 9 529 112 514 508 928 1006 1054 55 14 118 28 139 31 22 3 42 7
44 9 7 8 334 3 370 -5z"/>
<path d="M3447 4314 c-1 -1 -22 -5 -47 -8 -82 -10 -94 -13 -150 -31 -484 -159
-707 -720 -464 -1165 122 -221 335 -371 594 -417 43 -7 193 -7 240 1 254 41
473 195 593 416 256 469 -1 1051 -519 1180 -66 16 -238 33 -247 24z"/>
</g>
</svg>
